<?xml version="1.0" encoding="UTF-8" standalone="no"?>
<!-- Created with Inkscape (http://www.inkscape.org/) -->
<svg
   xmlns:svg="http://www.w3.org/2000/svg"
   xmlns="http://www.w3.org/2000/svg"
   version="1.0"
   width="138.18875"
   height="128.97725"
   id="svg2423">
  <defs
     id="defs2425" />
  <path
     d="M 69.697375,64.465 L 69.697375,55.5525 C 73.089875,55.6 76.086125,55.8125 78.688625,56.13 C 78.358625,56.8125 78.069875,57.5325 77.699875,58.145 C 75.498625,61.7775 72.681125,63.92875 69.697375,64.465 M 66.872375,64.44875 C 63.914875,63.89 61.134875,61.74875 58.951125,58.145 C 58.579875,57.53125 58.277375,56.81375 57.947375,56.13 C 60.533625,55.815 63.503625,55.60125 66.872375,55.5525 L 66.872375,64.44875 z M 58.687375,62.51875 C 55.989875,61.27375 53.573625,59.55125 51.556125,57.4175 C 51.591125,57.4025 51.583625,57.4 51.621125,57.385 C 52.332375,57.09375 53.573625,56.79375 55.006125,56.5275 C 55.484875,57.59875 55.977375,58.665 56.551125,59.61375 C 57.196125,60.675 57.922375,61.63125 58.687375,62.51875 M 77.964875,62.51875 C 78.727375,61.63125 79.457375,60.675 80.098625,59.61375 C 80.672375,58.665 81.167375,57.59875 81.647375,56.5275 C 83.078625,56.79375 84.318625,57.09375 85.029875,57.385 C 85.056125,57.39625 85.052375,57.39 85.077375,57.4025 C 83.058625,59.53875 80.666125,61.2725 77.964875,62.51875 M 49.766125,55.2225 C 47.228625,51.785 45.668625,47.63625 45.343625,43.10875 L 52.066125,43.10875 C 52.218625,46.99375 52.898625,50.62 54.002375,53.87 C 52.701125,54.13 51.459875,54.395 50.568625,54.76125 C 50.263625,54.885 50.026125,55.07 49.766125,55.2225 M 86.887375,55.2225 C 86.624875,55.07 86.384875,54.885 86.081125,54.76125 C 85.194875,54.39625 83.944875,54.13 82.649875,53.87 C 83.751125,50.62 84.414875,46.99375 84.569875,43.10875 L 91.30862,43.10875 C 90.98112,47.6325 89.41738,51.785 86.887375,55.2225 M 56.814875,53.4075 C 55.726125,50.36 55.053625,46.875 54.891125,43.10875 L 66.872375,43.10875 L 66.872375,52.73125 C 63.073625,52.78375 59.689875,53.0175 56.814875,53.4075 M 79.819875,53.4075 C 76.927375,53.01625 73.522375,52.78125 69.697375,52.73125 L 69.697375,43.10875 L 81.761125,43.10875 C 81.597375,46.875 80.909875,50.36 79.819875,53.4075 M 45.293625,40.27 C 45.524875,35.7125 46.997375,31.5 49.469875,28.0075 C 49.809875,28.24125 50.152375,28.46375 50.568625,28.635 C 51.418625,28.98375 52.616125,29.2225 53.841125,29.475 C 52.782375,32.7475 52.139875,36.38625 52.031125,40.27 L 45.293625,40.27 z M 54.858625,40.27 C 54.972375,36.5125 55.612375,33.025 56.649875,29.955 C 59.553625,30.35625 63.007375,30.61125 66.872375,30.66375 L 66.872375,40.27 L 54.858625,40.27 z M 69.697375,40.27 L 69.697375,30.66375 C 73.597375,30.6125 77.077375,30.36125 79.999875,29.955 C 81.038625,33.025 81.678625,36.5125 81.792375,40.27 L 69.697375,40.27 z M 84.604875,40.27 C 84.493625,36.38625 83.869875,32.7475 82.811125,29.475 C 84.029875,29.225 85.233625,28.98125 86.081125,28.635 C 86.496125,28.465 86.827375,28.23625 87.166125,28.0075 C 89.63863,31.5 91.12737,35.7125 91.35862,40.27 L 84.604875,40.27 z M 66.872375,27.825 C 63.397375,27.775 60.331125,27.56375 57.702375,27.23125 C 58.099875,26.3625 58.489875,25.48375 58.951125,24.7225 C 61.134875,21.11875 63.914875,18.9775 66.872375,18.4175 L 66.872375,27.825 z M 69.697375,27.825 L 69.697375,18.4025 C 72.681125,18.93875 75.498625,21.08875 77.699875,24.7225 C 78.162375,25.4825 78.536125,26.3625 78.933625,27.23125 C 76.286125,27.565 73.192375,27.77875 69.697375,27.825 M 54.792375,26.8025 C 53.491125,26.54875 52.286125,26.28125 51.621125,26.01 C 51.422375,25.92875 51.381125,25.88125 51.259875,25.81125 C 53.341125,23.52 55.843625,21.66 58.687375,20.34875 C 57.922375,21.23625 57.196125,22.19125 56.551125,23.25375 C 55.887375,24.34625 55.326125,25.54625 54.792375,26.8025 M 81.859875,26.8025 C 81.326125,25.54625 80.761125,24.34625 80.098625,23.25375 C 79.457375,22.19125 78.727375,21.23625 77.964875,20.34875 C 80.806125,21.66 83.293625,23.52 85.376125,25.81125 C 85.253625,25.88 85.221125,25.9325 85.029875,26.01 C 84.367375,26.28125 83.158625,26.54875 81.859875,26.8025"
     id="path83"
     style="fill:#062747;fill-opacity:1;fill-rule:nonzero;stroke:none" />
  <path
     d="M 68.32625,1.2434498e-14 C 50.90125,1.2434498e-14 36.13875,11.10375 30.18625,26.5975 L 19.96,26.5975 L 19.96,36.29625 L 33.4875,36.29625 C 35.6575,36.315 37.575,34.8825 38.1775,32.7925 C 41.93875,19.495 53.9675,9.69875 68.32625,9.69875 C 82.685,9.69875 94.7425,19.4625 98.6175,32.7925 C 99.2175,34.865 101.10875,36.2925 103.2575,36.29625 L 116.6925,36.29625 L 116.6925,26.5975 L 106.60875,26.5975 C 100.56375,11.10375 85.76375,1.2434498e-14 68.32625,1.2434498e-14 M 19.96,46.57 L 19.96,56.2675 L 30.13875,56.2675 C 36.0825,71.78375 50.88625,82.915 68.32625,82.915 C 85.7725,82.915 100.56875,71.77375 106.60875,56.2675 L 116.6925,56.2675 L 116.6925,46.57 L 103.2575,46.57 C 101.10875,46.5725 99.2175,48.00125 98.6175,50.075 C 94.7425,63.405 82.685,73.21625 68.32625,73.21625 C 53.9675,73.21625 41.93875,63.42 38.1775,50.12375 C 37.5925,48.01125 35.67125,46.5575 33.4875,46.57 L 19.96,46.57 z"
     id="path87"
     style="fill:#a73e10;fill-opacity:1;fill-rule:nonzero;stroke:none" />
  <path
     d="M 5.4525,94.3835 L 0,94.3835 L 0,117.82975 L 5.4525,117.82975 L 5.4525,94.3835 z M 43.74375,94.3835 L 32.9275,108.5585 L 21.88875,94.3835 L 17.43625,94.3835 L 17.43625,117.82975 L 21.88875,117.82975 L 21.88875,103.33475 L 21.7525,100.836 C 22.0225,101.516 22.34375,102.1535 23.15875,103.24225 L 31.975,115.011 L 33.065,115.011 L 41.87875,103.2885 C 42.10625,103.01725 42.78875,101.96975 43.2425,100.836 C 43.0625,102.1985 43.0625,102.971 43.0625,103.33475 L 43.0625,117.82975 L 48.0575,117.82975 L 48.0575,94.3835 L 43.74375,94.3835 z M 64.99625,94.3835 L 59.54375,94.3835 L 59.54375,117.82975 L 64.99625,117.82975 L 64.99625,94.3835 z M 80.7075,94.3835 L 76.98125,94.3835 L 76.98125,117.82975 L 81.8875,117.82975 L 81.8875,105.1535 C 81.8875,104.69725 81.8875,104.51475 81.84375,103.92475 C 81.84375,103.7435 81.79625,103.516 81.79625,103.33475 C 81.75125,102.69725 81.705,102.06225 81.65875,101.42725 C 82.43375,102.33475 83.4775,103.1985 83.61375,103.33475 L 100.835,117.82975 L 104.55875,117.82975 L 104.55875,94.3835 L 99.655,94.3835 L 99.655,106.696 L 99.88,110.73975 C 97.88125,108.606 97.97,108.831 97.19875,108.19475 L 80.7075,94.3835 z M 127.42125,98.6535 L 138.18875,98.6535 L 138.18875,94.3835 L 111.19875,94.3835 L 111.19875,98.6535 L 121.9675,98.6535 L 121.9675,117.82975 L 127.42125,117.82975 L 127.42125,98.6535 z"
     id="path89"
     style="fill:#062747;fill-opacity:1;fill-rule:nonzero;stroke:none" />
  <path
     d="M 1.37125,123.08475 L 0,123.08475 L 0,128.976 L 1.37125,128.976 L 1.37125,123.08475 z M 10.99625,123.08475 L 8.2775,126.64725 L 5.5,123.08475 L 4.3825,123.08475 L 4.3825,128.97725 L 5.5,128.97725 L 5.5,125.3335 L 5.4675,124.70725 C 5.535,124.876 5.61375,125.03725 5.82,125.30975 L 8.0375,128.2685 L 8.31125,128.2685 L 10.5275,125.32225 C 10.58375,125.2535 10.755,124.991 10.87,124.70725 C 10.825,125.04725 10.825,125.2435 10.825,125.3335 L 10.825,128.97725 L 12.07875,128.97725 L 12.07875,123.08475 L 10.99625,123.08475 z M 16.88125,123.08475 L 13.545,128.97725 L 14.92875,128.97725 L 15.6025,127.6985 L 19.3475,127.6985 L 20.045,128.97725 L 21.5875,128.97725 L 18.20625,123.08475 L 16.88125,123.08475 z M 16.16125,126.6235 L 17.4875,124.22725 L 18.76625,126.6235 L 16.16125,126.6235 z M 28.9825,124.1585 L 28.9825,124.81975 L 30.35125,124.57975 L 30.35125,124.421 C 30.35125,124.066 30.32875,123.63225 30.02125,123.3585 C 29.7225,123.09475 29.23375,123.08475 28.89125,123.08475 L 24.825,123.08475 C 24.4475,123.08475 23.96875,123.09475 23.6825,123.371 C 23.3625,123.6785 23.3625,124.22725 23.3625,124.4785 L 23.3625,127.58475 C 23.3625,127.836 23.3625,128.38225 23.6825,128.691 C 23.96875,128.966 24.4475,128.97725 24.825,128.97725 L 28.89125,128.97725 C 29.26875,128.97725 29.74625,128.966 30.0325,128.691 C 30.35125,128.38225 30.35125,127.836 30.35125,127.58475 L 30.35125,125.5735 L 26.7775,125.5735 L 26.7775,126.57975 L 28.9825,126.57975 L 28.9825,127.90475 L 24.73375,127.90475 L 24.73375,124.1585 L 28.9825,124.1585 z M 33.2575,123.08475 L 33.2575,128.97725 L 39.345,128.97725 L 39.345,127.90475 L 34.62875,127.90475 L 34.62875,126.4085 L 37.34625,126.4085 L 37.34625,125.40225 L 34.62875,125.40225 L 34.62875,124.08975 L 39.28875,124.08975 L 39.28875,123.08475 L 33.2575,123.08475 z M 45.915,123.08475 L 44.54375,123.08475 L 44.54375,128.976 L 45.915,128.976 L 45.915,123.08475 z M 49.8675,123.08475 L 48.93,123.08475 L 48.93,128.97725 L 50.1625,128.97725 L 50.1625,125.791 C 50.1625,125.676 50.1625,125.631 50.1525,125.481 C 50.1525,125.43725 50.14,125.37975 50.14,125.3335 C 50.12875,125.1735 50.1175,125.01475 50.105,124.8535 C 50.30125,125.081 50.5625,125.301 50.59625,125.3335 L 54.92625,128.97725 L 55.8625,128.97725 L 55.8625,123.08475 L 54.6275,123.08475 L 54.6275,126.17975 L 54.685,127.196 C 54.18375,126.6585 54.205,126.71475 54.0125,126.556 L 49.8675,123.08475 z M 61.6075,124.1585 L 64.31375,124.1585 L 64.31375,123.08475 L 57.53,123.08475 L 57.53,124.1585 L 60.23875,124.1585 L 60.23875,128.97725 L 61.6075,128.97725 L 61.6075,124.1585 z M 65.98375,123.08475 L 65.98375,128.97725 L 72.06875,128.97725 L 72.06875,127.90475 L 67.355,127.90475 L 67.355,126.4085 L 70.07125,126.4085 L 70.07125,125.40225 L 67.355,125.40225 L 67.355,124.08975 L 72.01375,124.08975 L 72.01375,123.08475 L 65.98375,123.08475 z M 75.9875,123.08475 L 74.61625,123.08475 L 74.61625,128.97725 L 80.405,128.97725 L 80.405,127.90475 L 75.9875,127.90475 L 75.9875,123.08475 z M 83.7925,123.08475 L 82.42375,123.08475 L 82.42375,128.97725 L 88.21375,128.97725 L 88.21375,127.90475 L 83.7925,127.90475 L 83.7925,123.08475 z M 91.6,123.08475 L 90.2325,123.08475 L 90.2325,128.976 L 91.6,128.976 L 91.6,123.08475 z M 100.11875,124.1585 L 100.11875,124.81975 L 101.49,124.57975 L 101.49,124.421 C 101.49,124.066 101.4675,123.63225 101.15625,123.3585 C 100.86125,123.09475 100.36875,123.08475 100.02625,123.08475 L 95.96125,123.08475 C 95.5825,123.08475 95.10375,123.09475 94.81875,123.371 C 94.5,123.6785 94.5,124.22725 94.5,124.4785 L 94.5,127.58475 C 94.5,127.836 94.5,128.38225 94.81875,128.691 C 95.10375,128.966 95.5825,128.97725 95.96125,128.97725 L 100.02625,128.97725 C 100.40375,128.97725 100.88375,128.966 101.16875,128.691 C 101.49,128.38225 101.49,127.836 101.49,127.58475 L 101.49,125.5735 L 97.915,125.5735 L 97.915,126.57975 L 100.11875,126.57975 L 100.11875,127.90475 L 95.87125,127.90475 L 95.87125,124.1585 L 100.11875,124.1585 z M 104.39375,123.08475 L 104.39375,128.97725 L 110.48375,128.97725 L 110.48375,127.90475 L 105.765,127.90475 L 105.765,126.4085 L 108.485,126.4085 L 108.485,125.40225 L 105.765,125.40225 L 105.765,124.08975 L 110.42375,124.08975 L 110.42375,123.08475 L 104.39375,123.08475 z M 113.9525,123.08475 L 113.01625,123.08475 L 113.01625,128.97725 L 114.25125,128.97725 L 114.25125,125.791 C 114.25125,125.676 114.25125,125.631 114.23875,125.481 C 114.23875,125.43725 114.22875,125.37975 114.22875,125.3335 C 114.21625,125.1735 114.205,125.01475 114.1925,124.8535 C 114.3875,125.081 114.64875,125.301 114.68625,125.3335 L 119.0125,128.97725 L 119.94875,128.97725 L 119.94875,123.08475 L 118.7175,123.08475 L 118.7175,126.17975 L 118.77375,127.196 C 118.27,126.6585 118.2925,126.71475 118.10125,126.556 L 113.9525,123.08475 z M 127.9025,124.1585 L 127.9025,125.276 L 129.27,125.05975 L 129.27,124.4785 C 129.27,124.22725 129.27,123.6785 128.95,123.371 C 128.665,123.09475 128.185,123.08475 127.81,123.08475 L 124.29,123.08475 C 123.91625,123.08475 123.43375,123.09475 123.1475,123.371 C 122.8275,123.6785 122.8275,124.22725 122.8275,124.4785 L 122.8275,127.58475 C 122.8275,127.836 122.8275,128.38225 123.1475,128.691 C 123.43375,128.966 123.91625,128.97725 124.29,128.97725 L 127.81,128.97725 C 128.185,128.97725 128.665,128.966 128.95,128.691 C 129.27,128.38225 129.27,127.836 129.27,127.58475 L 129.27,126.90975 L 127.9025,126.6235 L 127.9025,127.90475 L 124.19875,127.90475 L 124.19875,124.1585 L 127.9025,124.1585 z M 132.10125,123.08475 L 132.10125,128.97725 L 138.18875,128.97725 L 138.18875,127.90475 L 133.4725,127.90475 L 133.4725,126.4085 L 136.18875,126.4085 L 136.18875,125.40225 L 133.4725,125.40225 L 133.4725,124.08975 L 138.13125,124.08975 L 138.13125,123.08475 L 132.10125,123.08475 z"
     id="path91"
     style="fill:#062747;fill-opacity:1;fill-rule:nonzero;stroke:none" />
</svg>
