<?xml version="1.0" encoding="UTF-8" standalone="no"?>
<!-- Created with Inkscape (http://www.inkscape.org/) -->
<svg
   xmlns:svg="http://www.w3.org/2000/svg"
   xmlns="http://www.w3.org/2000/svg"
   version="1.0"
   width="159.44875"
   height="148.8185"
   id="svg2585">
  <defs
     id="defs2587" />
  <g
     transform="matrix(1.25,0,0,-1.25,80.42087,74.38225)"
     id="g59">
    <path
       d="M 0,0 L 0,8.227 C 3.132,8.184 5.897,7.986 8.3,7.693 C 7.995,7.063 7.729,6.399 7.387,5.834 C 5.355,2.48 2.754,0.495 0,0 M -2.607,0.015 C -5.338,0.531 -7.904,2.508 -9.92,5.834 C -10.263,6.4 -10.541,7.063 -10.846,7.693 C -8.459,7.984 -5.717,8.182 -2.607,8.227 L -2.607,0.015 z M -10.163,1.797 C -12.653,2.945 -14.883,4.536 -16.746,6.505 C -16.714,6.52 -16.721,6.521 -16.686,6.535 C -16.029,6.805 -14.883,7.081 -13.562,7.327 C -13.119,6.338 -12.665,5.354 -12.135,4.479 C -11.54,3.498 -10.869,2.616 -10.163,1.797 M 7.632,1.797 C 8.336,2.616 9.009,3.498 9.602,4.479 C 10.131,5.354 10.588,6.338 11.03,7.327 C 12.352,7.081 13.497,6.805 14.153,6.535 C 14.177,6.525 14.174,6.53 14.197,6.52 C 12.334,4.547 10.125,2.947 7.632,1.797 M -18.398,8.531 C -20.74,11.705 -22.181,15.534 -22.48,19.713 L -16.275,19.713 C -16.134,16.127 -15.507,12.78 -14.487,9.78 C -15.688,9.54 -16.834,9.295 -17.657,8.957 C -17.938,8.843 -18.158,8.672 -18.398,8.531 M 15.867,8.531 C 15.625,8.672 15.404,8.843 15.123,8.957 C 14.306,9.294 13.151,9.54 11.956,9.78 C 12.973,12.78 13.586,16.127 13.729,19.713 L 19.948,19.713 C 19.646,15.537 18.203,11.704 15.867,8.531 M -11.892,10.207 C -12.896,13.02 -13.518,16.237 -13.667,19.713 L -2.607,19.713 L -2.607,10.831 C -6.114,10.783 -9.237,10.567 -11.892,10.207 M 9.344,10.207 C 6.674,10.568 3.531,10.785 0,10.831 L 0,19.713 L 11.136,19.713 C 10.984,16.236 10.351,13.021 9.344,10.207 M -22.526,22.334 C -22.313,26.541 -20.953,30.429 -18.672,33.653 C -18.357,33.438 -18.041,33.231 -17.657,33.074 C -16.872,32.752 -15.768,32.531 -14.637,32.298 C -15.613,29.277 -16.207,25.919 -16.307,22.334 L -22.526,22.334 z M -13.697,22.334 C -13.592,25.803 -13.002,29.021 -12.044,31.855 C -9.363,31.484 -6.176,31.249 -2.607,31.201 L -2.607,22.334 L -13.697,22.334 z M 0,22.334 L 0,31.201 C 3.601,31.248 6.813,31.48 9.51,31.855 C 10.469,29.021 11.06,25.802 11.165,22.334 L 0,22.334 z M 13.761,22.334 C 13.658,25.919 13.082,29.277 12.105,32.298 C 13.23,32.529 14.341,32.754 15.123,33.074 C 15.507,33.23 15.813,33.441 16.125,33.653 C 18.407,30.429 19.781,26.541 19.995,22.334 L 13.761,22.334 z M -2.607,33.821 C -5.815,33.867 -8.646,34.063 -11.072,34.369 C -10.705,35.172 -10.346,35.982 -9.92,36.686 C -7.904,40.012 -5.338,41.988 -2.607,42.505 L -2.607,33.821 z M 0,33.821 L 0,42.52 C 2.754,42.024 5.355,40.039 7.387,36.686 C 7.813,35.983 8.159,35.171 8.525,34.369 C 6.082,34.062 3.227,33.864 0,33.821 M -13.758,34.766 C -14.959,35 -16.072,35.246 -16.686,35.497 C -16.869,35.572 -16.907,35.616 -17.02,35.68 C -15.098,37.795 -12.788,39.513 -10.163,40.723 C -10.869,39.903 -11.54,39.021 -12.135,38.041 C -12.747,37.032 -13.266,35.925 -13.758,34.766 M 11.227,34.766 C 10.734,35.925 10.213,37.032 9.602,38.041 C 9.009,39.021 8.336,39.903 7.632,40.723 C 10.254,39.513 12.551,37.795 14.473,35.68 C 14.359,35.617 14.329,35.568 14.153,35.497 C 13.541,35.246 12.426,35 11.227,34.766"
       id="path61"
       style="fill:#062747;fill-opacity:1;fill-rule:nonzero;stroke:none" />
  </g>
  <g
     transform="matrix(1.25,0,0,-1.25,78.83888,0)"
     id="g63">
    <path
       d="M 0,0 C -16.084,0 -29.711,-10.249 -35.206,-24.552 L -44.646,-24.552 L -44.646,-33.504 L -32.159,-33.504 C -30.155,-33.521 -28.386,-32.199 -27.829,-30.27 C -24.357,-17.995 -13.254,-8.953 0,-8.953 C 13.254,-8.953 24.384,-17.965 27.961,-30.27 C 28.515,-32.183 30.261,-33.501 32.244,-33.504 L 44.646,-33.504 L 44.646,-24.552 L 35.338,-24.552 C 29.758,-10.249 16.096,0 0,0 M -44.646,-42.987 L -44.646,-51.939 L -35.25,-51.939 C -29.764,-66.262 -16.099,-76.536 0,-76.536 C 16.104,-76.536 29.763,-66.252 35.338,-51.939 L 44.646,-51.939 L 44.646,-42.987 L 32.244,-42.987 C 30.261,-42.99 28.515,-44.309 27.961,-46.223 C 24.384,-58.527 13.254,-67.584 0,-67.584 C -13.254,-67.584 -24.357,-58.541 -27.829,-46.268 C -28.369,-44.318 -30.143,-42.976 -32.159,-42.987 L -44.646,-42.987 z"
       id="path65"
       style="fill:#a73e10;fill-opacity:1;fill-rule:nonzero;stroke:none" />
  </g>
  <path
     d="M 6.2925,108.9035 L 0.00125,108.9035 L 0.00125,135.956 L 6.2925,135.956 L 6.2925,108.9035 z M 50.47375,108.9035 L 37.995,125.25975 L 25.25625,108.9035 L 20.12,108.9035 L 20.12,135.956 L 25.25625,135.956 L 25.25625,119.231 L 25.1,116.34975 C 25.4125,117.1335 25.78125,117.86975 26.7225,119.12475 L 36.895,132.70475 L 38.1525,132.70475 L 48.3225,119.17725 C 48.58625,118.86475 49.37375,117.65725 49.89625,116.34975 C 49.6875,117.921 49.6875,118.81225 49.6875,119.231 L 49.6875,135.956 L 55.4525,135.956 L 55.4525,108.9035 L 50.47375,108.9035 z M 74.9975,108.9035 L 68.70625,108.9035 L 68.70625,135.956 L 74.9975,135.956 L 74.9975,108.9035 z M 93.12375,108.9035 L 88.825,108.9035 L 88.825,135.956 L 94.48625,135.956 L 94.48625,121.32975 C 94.48625,120.8035 94.48625,120.5935 94.435,119.91225 C 94.435,119.7035 94.38,119.43975 94.38,119.231 C 94.32875,118.49725 94.275,117.7635 94.2225,117.031 C 95.11625,118.0785 96.32125,119.0735 96.47875,119.231 L 116.35,135.956 L 120.645,135.956 L 120.645,108.9035 L 114.9875,108.9035 L 114.9875,123.10975 L 115.2475,127.776 C 112.94,125.31475 113.0425,125.57475 112.1525,124.83975 L 93.12375,108.9035 z M 147.025,113.831 L 159.44875,113.831 L 159.44875,108.9035 L 128.30625,108.9035 L 128.30625,113.831 L 140.73125,113.831 L 140.73125,135.956 L 147.025,135.956 L 147.025,113.831 z"
     id="path67"
     style="fill:#062747;fill-opacity:1;fill-rule:nonzero;stroke:none" />
  <path
     d="M 1.5825,142.021 L 0,142.021 L 0,148.8185 L 1.5825,148.8185 L 1.5825,142.021 z M 12.68875,142.021 L 9.55125,146.131 L 6.3475,142.021 L 5.0575,142.021 L 5.0575,148.8185 L 6.3475,148.8185 L 6.3475,144.61475 L 6.30875,143.89225 C 6.3875,144.08725 6.47875,144.2735 6.71625,144.5885 L 9.275,148.001 L 9.59,148.001 L 12.1475,144.60225 C 12.21375,144.52225 12.41125,144.21975 12.54375,143.89225 C 12.49125,144.28475 12.49125,144.511 12.49125,144.61475 L 12.49125,148.8185 L 13.93875,148.8185 L 13.93875,142.021 L 12.68875,142.021 z M 19.47875,142.021 L 15.63,148.8185 L 17.2275,148.8185 L 18.00375,147.34475 L 22.325,147.34475 L 23.13,148.8185 L 24.91,148.8185 L 21.00875,142.021 L 19.47875,142.021 z M 18.6475,146.1035 L 20.17875,143.33975 L 21.655,146.1035 L 18.6475,146.1035 z M 33.4425,143.2585 L 33.4425,144.021 L 35.02125,143.746 L 35.02125,143.56225 C 35.02125,143.15225 34.995,142.65225 34.64,142.336 C 34.29625,142.03225 33.7325,142.021 33.33625,142.021 L 28.645,142.021 C 28.21,142.021 27.65625,142.03225 27.3275,142.351 C 26.9575,142.706 26.9575,143.33975 26.9575,143.6285 L 26.9575,147.21225 C 26.9575,147.5035 26.9575,148.1335 27.3275,148.48975 C 27.65625,148.80725 28.21,148.8185 28.645,148.8185 L 33.33625,148.8185 C 33.7725,148.8185 34.32375,148.80725 34.65375,148.48975 C 35.02125,148.1335 35.02125,147.5035 35.02125,147.21225 L 35.02125,144.89225 L 30.8975,144.89225 L 30.8975,146.05225 L 33.4425,146.05225 L 33.4425,147.581 L 28.54,147.581 L 28.54,143.2585 L 33.4425,143.2585 z M 38.37625,142.021 L 38.37625,148.8185 L 45.4,148.8185 L 45.4,147.581 L 39.9575,147.581 L 39.9575,145.85475 L 43.0925,145.85475 L 43.0925,144.69475 L 39.9575,144.69475 L 39.9575,143.17975 L 45.33375,143.17975 L 45.33375,142.021 L 38.37625,142.021 z M 52.98,142.021 L 51.3975,142.021 L 51.3975,148.8185 L 52.98,148.8185 L 52.98,142.021 z M 57.54,142.021 L 56.45875,142.021 L 56.45875,148.8185 L 57.88,148.8185 L 57.88,145.14225 C 57.88,145.00975 57.88,144.95725 57.86875,144.786 C 57.86875,144.73475 57.855,144.6685 57.855,144.61475 C 57.8425,144.431 57.82875,144.24725 57.81375,144.061 C 58.04,144.32475 58.34125,144.57725 58.3825,144.61475 L 63.3775,148.8185 L 64.4575,148.8185 L 64.4575,142.021 L 63.0325,142.021 L 63.0325,145.591 L 63.09875,146.7635 C 62.52,146.1435 62.54625,146.2085 62.3225,146.026 L 57.54,142.021 z M 71.08625,143.2585 L 74.21,143.2585 L 74.21,142.021 L 66.3825,142.021 L 66.3825,143.2585 L 69.5075,143.2585 L 69.5075,148.8185 L 71.08625,148.8185 L 71.08625,143.2585 z M 76.13625,142.021 L 76.13625,148.8185 L 83.1575,148.8185 L 83.1575,147.581 L 77.7175,147.581 L 77.7175,145.85475 L 80.8525,145.85475 L 80.8525,144.69475 L 77.7175,144.69475 L 77.7175,143.17975 L 83.09375,143.17975 L 83.09375,142.021 L 76.13625,142.021 z M 87.67875,142.021 L 86.09625,142.021 L 86.09625,148.8185 L 92.77625,148.8185 L 92.77625,147.581 L 87.67875,147.581 L 87.67875,142.021 z M 96.68375,142.021 L 95.105,142.021 L 95.105,148.8185 L 101.785,148.8185 L 101.785,147.581 L 96.68375,147.581 L 96.68375,142.021 z M 105.6925,142.021 L 104.11375,142.021 L 104.11375,148.8185 L 105.6925,148.8185 L 105.6925,142.021 z M 115.52125,143.2585 L 115.52125,144.021 L 117.10375,143.746 L 117.10375,143.56225 C 117.10375,143.15225 117.07875,142.65225 116.71875,142.336 C 116.37875,142.03225 115.81125,142.021 115.415,142.021 L 110.72625,142.021 C 110.28875,142.021 109.735,142.03225 109.4075,142.351 C 109.04,142.706 109.04,143.33975 109.04,143.6285 L 109.04,147.21225 C 109.04,147.5035 109.04,148.1335 109.4075,148.48975 C 109.735,148.80725 110.28875,148.8185 110.72625,148.8185 L 115.415,148.8185 C 115.85125,148.8185 116.405,148.80725 116.73375,148.48975 C 117.10375,148.1335 117.10375,147.5035 117.10375,147.21225 L 117.10375,144.89225 L 112.98,144.89225 L 112.98,146.05225 L 115.52125,146.05225 L 115.52125,147.581 L 110.6225,147.581 L 110.6225,143.2585 L 115.52125,143.2585 z M 120.455,142.021 L 120.455,148.8185 L 127.4825,148.8185 L 127.4825,147.581 L 122.03625,147.581 L 122.03625,145.85475 L 125.175,145.85475 L 125.175,144.69475 L 122.03625,144.69475 L 122.03625,143.17975 L 127.4125,143.17975 L 127.4125,142.021 L 120.455,142.021 z M 131.485,142.021 L 130.405,142.021 L 130.405,148.8185 L 131.82875,148.8185 L 131.82875,145.14225 C 131.82875,145.00975 131.82875,144.95725 131.815,144.786 C 131.815,144.73475 131.80375,144.6685 131.80375,144.61475 C 131.78875,144.431 131.775,144.24725 131.76125,144.061 C 131.98625,144.32475 132.28875,144.57725 132.33125,144.61475 L 137.3225,148.8185 L 138.4025,148.8185 L 138.4025,142.021 L 136.98125,142.021 L 136.98125,145.591 L 137.0475,146.7635 C 136.465,146.1435 136.4925,146.2085 136.27125,146.026 L 131.485,142.021 z M 147.58,143.2585 L 147.58,144.5485 L 149.15875,144.2985 L 149.15875,143.6285 C 149.15875,143.33975 149.15875,142.706 148.78875,142.351 C 148.46,142.03225 147.90625,142.021 147.47375,142.021 L 143.4125,142.021 C 142.98,142.021 142.425,142.03225 142.09375,142.351 C 141.72375,142.706 141.72375,143.33975 141.72375,143.6285 L 141.72375,147.21225 C 141.72375,147.5035 141.72375,148.1335 142.09375,148.48975 C 142.425,148.80725 142.98,148.8185 143.4125,148.8185 L 147.47375,148.8185 C 147.90625,148.8185 148.46,148.80725 148.78875,148.48975 C 149.15875,148.1335 149.15875,147.5035 149.15875,147.21225 L 149.15875,146.4335 L 147.58,146.1035 L 147.58,147.581 L 143.30625,147.581 L 143.30625,143.2585 L 147.58,143.2585 z M 152.425,142.021 L 152.425,148.8185 L 159.44875,148.8185 L 159.44875,147.581 L 154.0075,147.581 L 154.0075,145.85475 L 157.14125,145.85475 L 157.14125,144.69475 L 154.0075,144.69475 L 154.0075,143.17975 L 159.3825,143.17975 L 159.3825,142.021 L 152.425,142.021 z"
     id="path69"
     style="fill:#062747;fill-opacity:1;fill-rule:nonzero;stroke:none" />
</svg>
