<?xml version="1.0" encoding="UTF-8" standalone="no"?>
<!-- Created with Inkscape (http://www.inkscape.org/) -->
<svg
   xmlns:svg="http://www.w3.org/2000/svg"
   xmlns="http://www.w3.org/2000/svg"
   version="1.0"
   width="70.866142"
   height="60.236217"
   id="svg2538">
  <defs
     id="defs2540" />
  <path
     d="M 35.2502,32.95575 L 35.2502,28.40075 C 36.9902,28.422 38.52645,28.53325 39.86145,28.69575 C 39.69145,29.04325 39.54395,29.41075 39.35395,29.72575 C 38.2252,31.582 36.7802,32.68075 35.2502,32.95575 M 33.80145,32.947 C 32.2852,32.66075 30.8577,31.567 29.73895,29.72575 C 29.54895,29.41075 29.3927,29.0445 29.2252,28.69575 C 30.5502,28.53325 32.07395,28.4245 33.80145,28.40075 L 33.80145,32.947 z M 29.60395,31.96075 C 28.2202,31.3245 26.98145,30.44325 25.94645,29.35325 C 25.9652,29.3445 25.9602,29.3445 25.9802,29.337 C 26.3452,29.187 26.98145,29.03325 27.71645,28.897 C 27.96145,29.44575 28.21395,29.99075 28.5077,30.47575 C 28.8377,31.01825 29.21145,31.50575 29.60395,31.96075 M 39.48895,31.96075 C 39.88145,31.50575 40.2552,31.01825 40.58395,30.47575 C 40.8777,29.99075 41.13145,29.44575 41.37895,28.897 C 42.1127,29.03325 42.7502,29.187 43.11395,29.337 C 43.12645,29.342 43.12395,29.33825 43.1377,29.3445 C 42.1027,30.43825 40.8752,31.32325 39.48895,31.96075 M 25.0277,28.23075 C 23.7277,26.47325 22.92645,24.352 22.7602,22.03825 L 26.2077,22.03825 C 26.2877,24.0245 26.63645,25.87825 27.2002,27.53825 C 26.5352,27.67325 25.89895,27.80825 25.4402,27.9945 C 25.28395,28.05825 25.16145,28.15325 25.0277,28.23075 M 44.0652,28.23075 C 43.93145,28.15325 43.8077,28.05825 43.6527,27.9945 C 43.19895,27.80825 42.5577,27.67325 41.8927,27.53825 C 42.4577,25.87825 42.79895,24.0245 42.8777,22.03825 L 46.3327,22.03825 C 46.1652,24.352 45.36395,26.47325 44.0652,28.23075 M 28.64395,27.30325 C 28.08645,25.74575 27.7402,23.96325 27.65645,22.03825 L 33.80145,22.03825 L 33.80145,26.957 C 31.8527,26.9845 30.1177,27.102 28.64395,27.30325 M 40.44145,27.30325 C 38.9577,27.102 37.2127,26.982 35.2502,26.957 L 35.2502,22.03825 L 41.4377,22.03825 C 41.35395,23.96325 41.00145,25.74575 40.44145,27.30325 M 22.7352,20.587 C 22.85395,18.257 23.6102,16.10325 24.87645,14.31575 C 25.05145,14.437 25.2277,14.5495 25.4402,14.63825 C 25.87645,14.817 26.4902,14.9395 27.11895,15.06825 C 26.5752,16.74075 26.24645,18.60075 26.19145,20.587 L 22.7352,20.587 z M 27.6402,20.587 C 27.69895,18.66575 28.02645,16.88325 28.5602,15.31325 C 30.04895,15.51825 31.8202,15.64825 33.80145,15.67575 L 33.80145,20.587 L 27.6402,20.587 z M 35.2502,20.587 L 35.2502,15.67575 C 37.2502,15.6495 39.0352,15.52075 40.53395,15.31325 C 41.06645,16.88325 41.39395,18.66575 41.4527,20.587 L 35.2502,20.587 z M 42.8952,20.587 C 42.83895,18.60075 42.5177,16.74075 41.9752,15.06825 C 42.6002,14.94075 43.2177,14.81575 43.6527,14.63825 C 43.8652,14.552 44.03395,14.43575 44.2102,14.31575 C 45.4777,16.10325 46.23895,18.257 46.35895,20.587 L 42.8952,20.587 z M 33.80145,14.22575 C 32.01895,14.1995 30.44645,14.092 29.09895,13.92075 C 29.3027,13.477 29.50145,13.02825 29.73895,12.63825 C 30.8577,10.79575 32.2852,9.702 33.80145,9.41575 L 33.80145,14.22575 z M 35.2502,14.22575 L 35.2502,9.407 C 36.7802,9.682 38.2252,10.78075 39.35395,12.63825 C 39.5902,13.027 39.7827,13.477 39.98645,13.92075 C 38.62895,14.092 37.0427,14.20075 35.2502,14.22575 M 27.6077,13.702 C 26.93895,13.572 26.3202,13.43575 25.9802,13.29575 C 25.87895,13.2545 25.85645,13.2295 25.7952,13.19575 C 26.8627,12.02575 28.1452,11.07075 29.60395,10.40325 C 29.21145,10.85575 28.8377,11.3445 28.5077,11.887 C 28.1677,12.44575 27.8802,13.06075 27.6077,13.702 M 41.48645,13.702 C 41.2127,13.06075 40.9252,12.44575 40.58395,11.887 C 40.2552,11.3445 39.88145,10.85575 39.48895,10.40325 C 40.94645,11.07075 42.2227,12.02575 43.29145,13.19575 C 43.2277,13.2295 43.2102,13.257 43.11395,13.29575 C 42.7727,13.43575 42.15395,13.572 41.48645,13.702"
     id="path43"
     style="fill:#062747;fill-opacity:1;fill-rule:nonzero;stroke:none" />
  <path
     d="M 34.547325,1.4210855e-14 C 25.611075,1.4210855e-14 18.041075,5.675 14.989825,13.59625 L 9.743575,13.59625 L 9.743575,18.555 L 16.681075,18.555 C 17.794825,18.565 18.777325,17.8325 19.086075,16.76375 C 21.016075,9.965 27.183575,4.95875 34.547325,4.95875 C 41.911075,4.95875 48.093575,9.94875 50.081075,16.76375 C 50.388575,17.82375 51.358575,18.55375 52.459825,18.555 L 59.349825,18.555 L 59.349825,13.59625 L 54.179825,13.59625 C 51.079825,5.675 43.488575,1.4210855e-14 34.547325,1.4210855e-14 M 9.743575,23.8075 L 9.743575,28.765 L 14.964825,28.765 C 18.012325,36.6975 25.603575,42.38625 34.547325,42.38625 C 43.493575,42.38625 51.082325,36.6925 54.179825,28.765 L 59.349825,28.765 L 59.349825,23.8075 L 52.459825,23.8075 C 51.358575,23.8075 50.388575,24.53875 50.081075,25.59875 C 48.093575,32.41375 41.911075,37.43 34.547325,37.43 C 27.183575,37.43 21.016075,32.42125 19.086075,25.625 C 18.787325,24.545 17.801075,23.80125 16.681075,23.8075 L 9.743575,23.8075 z"
     id="path47"
     style="fill:#a73e10;fill-opacity:1;fill-rule:nonzero;stroke:none" />
  <path
     d="M 2.79495,48.249967 L -5e-05,48.249967 L -5e-05,60.236217 L 2.79495,60.236217 L 2.79495,48.249967 z M 22.4312,48.249967 L 16.88495,55.496217 L 11.22495,48.249967 L 8.94245,48.249967 L 8.94245,60.236217 L 11.22495,60.236217 L 11.22495,52.826217 L 11.1537,51.548717 C 11.2937,51.896217 11.45745,52.221217 11.87745,52.778717 L 16.39745,58.794967 L 16.9562,58.794967 L 21.4762,52.802467 C 21.5937,52.663717 21.9437,52.128717 22.17495,51.548717 C 22.08245,52.244967 22.08245,52.639967 22.08245,52.826217 L 22.08245,60.236217 L 24.64495,60.236217 L 24.64495,48.249967 L 22.4312,48.249967 z M 33.33245,48.249967 L 30.5362,48.249967 L 30.5362,60.236217 L 33.33245,60.236217 L 33.33245,48.249967 z M 41.3887,48.249967 L 39.47745,48.249967 L 39.47745,60.236217 L 41.99245,60.236217 L 41.99245,53.756217 C 41.99245,53.522467 41.99245,53.428717 41.9712,53.127467 C 41.9712,53.034967 41.9462,52.917467 41.9462,52.826217 C 41.9237,52.501217 41.89995,52.174967 41.87745,51.849967 C 42.2737,52.314967 42.8087,52.754967 42.87995,52.826217 L 51.7112,60.236217 L 53.6212,60.236217 L 53.6212,48.249967 L 51.10495,48.249967 L 51.10495,54.544967 L 51.2212,56.612467 C 50.19495,55.521217 50.2412,55.636217 49.84495,55.311217 L 41.3887,48.249967 z M 65.34495,50.433717 L 70.8662,50.433717 L 70.8662,48.249967 L 57.02495,48.249967 L 57.02495,50.433717 L 62.54745,50.433717 L 62.54745,60.236217 L 65.34495,60.236217 L 65.34495,50.433717 z"
     id="path49"
     style="fill:#062747;fill-opacity:1;fill-rule:nonzero;stroke:none" />
</svg>
